<?xml version="1.0" encoding="utf-8"?>
<!-- Generator: Adobe Illustrator 16.0.0, SVG Export Plug-In . SVG Version: 6.00 Build 0)  -->
<!DOCTYPE svg PUBLIC "-//W3C//DTD SVG 1.1//EN" "http://www.w3.org/Graphics/SVG/1.1/DTD/svg11.dtd">
<svg version="1.1" id="Ebene_1" xmlns="http://www.w3.org/2000/svg" xmlns:xlink="http://www.w3.org/1999/xlink" x="0px" y="0px"
	 width="306.5px" height="67.5px" viewBox="0 0 306.5 67.5" enable-background="new 0 0 306.5 67.5" xml:space="preserve">
<g>
	<defs>
		<path id="SVGID_1_" d="M74.397,31.02l-9.843-17.333L58.348,2.987c-0.856-1.284-2.354-2.354-4.28-2.354H21.971
			c-1.712,0-3.424,0.855-4.28,2.567L7.848,20.534L1.642,31.233c-0.856,1.498-0.856,3.424,0,4.922l16.049,27.818
			c0.856,1.498,2.568,2.567,4.28,2.567h32.098c1.712,0,3.424-0.855,4.28-2.567l16.049-28.032
			C75.253,34.443,75.253,32.731,74.397,31.02z M37.806,43.431c-5.35,0-9.843-4.494-9.843-9.844c0-5.349,4.494-9.843,9.843-9.843
			s9.843,4.494,9.843,9.843C47.649,38.937,43.369,43.431,37.806,43.431z"/>
	</defs>
	<clipPath id="SVGID_2_">
		<use xlink:href="#SVGID_1_"  overflow="visible"/>
	</clipPath>
	<g clip-path="url(#SVGID_2_)">
		<path fill="#547DBF" d="M26.678,13.901h37.875l-6.206-10.7c-0.856-1.498-2.354-2.567-4.28-2.567H21.971
			c-1.712,0-3.424,0.855-4.28,2.567L7.848,20.534l18.831,32.74V13.901z"/>
		
			<linearGradient id="SVGID_3_" gradientUnits="userSpaceOnUse" x1="3.1865" y1="933.0811" x2="10.8415" y2="937.5112" gradientTransform="matrix(2.1399 0 0 -2.1399 7.7699 2028.8606)">
			<stop  offset="0" style="stop-color:#2D3079;stop-opacity:0.2"/>
			<stop  offset="0.66" style="stop-color:#2D3079;stop-opacity:0"/>
		</linearGradient>
		<path fill="url(#SVGID_3_)" d="M26.678,13.901h37.875l-6.206-10.7c-0.856-1.498-2.354-2.567-4.28-2.567H21.971
			c-1.712,0-3.424,0.855-4.28,2.567L7.848,20.534l18.831,32.74V13.901z"/>
		
			<linearGradient id="SVGID_4_" gradientUnits="userSpaceOnUse" x1="-0.6836" y1="937.9023" x2="3.8342" y2="933.3846" gradientTransform="matrix(2.1399 0 0 -2.1399 7.7699 2028.8606)">
			<stop  offset="0" style="stop-color:#2D3079;stop-opacity:0.2"/>
			<stop  offset="1" style="stop-color:#2D3079;stop-opacity:0.04"/>
		</linearGradient>
		<polygon fill="url(#SVGID_4_)" points="7.848,20.534 17.477,29.95 15.765,34.443 		"/>
		<polygon fill="#2D3079" fill-opacity="0.1" points="16.193,34.229 8.917,21.604 7.848,20.534 15.765,34.443 		"/>
		<path fill="#FFCE40" d="M26.678,53.274L7.848,20.534L1.642,31.233c-0.856,1.498-0.856,3.424,0,4.922l16.049,27.818
			c0.856,1.498,2.568,2.567,4.28,2.567h19.9l19.045-32.954L26.678,53.274z"/>
		
			<linearGradient id="SVGID_5_" gradientUnits="userSpaceOnUse" x1="19.1328" y1="922.5752" x2="11.5465" y2="927.0169" gradientTransform="matrix(2.1399 0 0 -2.1399 7.7699 2028.8606)">
			<stop  offset="0" style="stop-color:#BE3A26;stop-opacity:0.15"/>
			<stop  offset="0.66" style="stop-color:#BE3A26;stop-opacity:0"/>
		</linearGradient>
		<path fill="url(#SVGID_5_)" d="M26.678,53.274L7.848,20.534L1.642,31.233c-0.856,1.498-0.856,3.424,0,4.922l16.049,27.818
			c0.856,1.498,2.568,2.567,4.28,2.567h19.9l19.045-32.954L26.678,53.274z"/>
		<path fill="#DB4436" d="M64.554,13.901H26.678l34.024,19.686L41.657,66.541h12.411c1.712,0,3.424-0.855,4.28-2.567l16.049-28.032
			c0.856-1.498,0.856-3.424,0-4.922L64.554,13.901z"/>
		
			<linearGradient id="SVGID_6_" gradientUnits="userSpaceOnUse" x1="20.1372" y1="941.4277" x2="20.1372" y2="932.6299" gradientTransform="matrix(2.1399 0 0 -2.1399 7.7699 2028.8606)">
			<stop  offset="0" style="stop-color:#A52822;stop-opacity:0.2"/>
			<stop  offset="0.66" style="stop-color:#A52822;stop-opacity:0"/>
		</linearGradient>
		<path fill="url(#SVGID_6_)" d="M64.554,13.901H26.678l34.024,19.686L41.657,66.541h12.411c1.712,0,3.424-0.855,4.28-2.567
			l16.049-28.032c0.856-1.498,0.856-3.424,0-4.922L64.554,13.901z"/>
		
			<linearGradient id="SVGID_7_" gradientUnits="userSpaceOnUse" x1="14.3105" y1="932.709" x2="25.6213" y2="921.3982" gradientTransform="matrix(2.1399 0 0 -2.1399 7.7699 2028.8606)">
			<stop  offset="0" style="stop-color:#3E2723;stop-opacity:0.15"/>
			<stop  offset="1" style="stop-color:#3E2723;stop-opacity:0"/>
		</linearGradient>
		<polygon fill="url(#SVGID_7_)" points="49.361,13.901 75.039,39.579 75.039,66.541 41.871,66.541 49.361,53.274 		"/>
		<rect x="49.147" y="13.901" fill="#3E2723" fill-opacity="0.05" width="16.049" height="0.428"/>
	</g>
</g>
<g>
	<defs>
		<path id="SVGID_8_" d="M74.397,31.02l-9.843-17.333L58.348,2.987c-0.856-1.284-2.354-2.354-4.28-2.354H21.971
			c-1.712,0-3.424,0.855-4.28,2.567L7.848,20.534L1.642,31.233c-0.856,1.498-0.856,3.424,0,4.922l16.049,27.818
			c0.856,1.498,2.568,2.567,4.28,2.567h32.098c1.712,0,3.424-0.855,4.28-2.567l16.049-28.032
			C75.253,34.443,75.253,32.731,74.397,31.02z M37.806,43.431c-5.35,0-9.843-4.494-9.843-9.844c0-5.349,4.494-9.843,9.843-9.843
			s9.843,4.494,9.843,9.843C47.649,38.937,43.369,43.431,37.806,43.431z"/>
	</defs>
	<clipPath id="SVGID_9_">
		<use xlink:href="#SVGID_8_"  overflow="visible"/>
	</clipPath>
	<g clip-path="url(#SVGID_9_)">
		<g>
			<defs>
				<path id="SVGID_10_" d="M64.554,13.901H26.678l34.024,19.686L41.657,66.541h12.411c1.712,0,3.424-0.855,4.28-2.567
					l16.049-28.032c0.856-1.498,0.856-3.424,0-4.922L64.554,13.901z"/>
			</defs>
			<defs>
				<path id="SVGID_11_" d="M64.554,13.901H26.678l34.024,19.686L41.657,66.541h12.411c1.712,0,3.424-0.855,4.28-2.567
					l16.049-28.032c0.856-1.498,0.856-3.424,0-4.922L64.554,13.901z"/>
			</defs>
			<clipPath id="SVGID_12_">
				<use xlink:href="#SVGID_10_"  overflow="visible"/>
			</clipPath>
			<clipPath id="SVGID_13_" clip-path="url(#SVGID_12_)">
				<use xlink:href="#SVGID_11_"  overflow="visible"/>
			</clipPath>
			<g clip-path="url(#SVGID_13_)">
				<path fill="#EEEEEE" d="M49.361,13.901l11.341,19.686L49.361,53.274H26.678L15.337,33.587l11.341-19.686H49.361"/>
			</g>
			<g clip-path="url(#SVGID_13_)">
				<path fill="#547DBF" d="M26.678,13.901h37.875l-6.206-10.7c-0.856-1.498-2.354-2.567-4.28-2.567H21.971
					c-1.712,0-3.424,0.855-4.28,2.567L7.848,20.534l18.831,32.74V13.901z"/>
			</g>
		</g>
		<g>
			<defs>
				<path id="SVGID_14_" d="M74.397,31.02l-9.843-17.333L58.348,2.987c-0.856-1.284-2.354-2.354-4.28-2.354H21.971
					c-1.712,0-3.424,0.855-4.28,2.567L7.848,20.534L1.642,31.233c-0.856,1.498-0.856,3.424,0,4.922l16.049,27.818
					c0.856,1.498,2.568,2.567,4.28,2.567h32.098c1.712,0,3.424-0.855,4.28-2.567l16.049-28.032
					C75.253,34.443,75.253,32.731,74.397,31.02z M37.806,43.431c-5.35,0-9.843-4.494-9.843-9.844c0-5.349,4.494-9.843,9.843-9.843
					s9.843,4.494,9.843,9.843C47.649,38.937,43.369,43.431,37.806,43.431z"/>
			</defs>
			<clipPath id="SVGID_15_">
				<use xlink:href="#SVGID_14_"  overflow="visible"/>
			</clipPath>
			<g clip-path="url(#SVGID_15_)">
				<g>
					<defs>
						<path id="SVGID_16_" d="M26.678,53.274L7.848,20.534L1.642,31.233c-0.856,1.498-0.856,3.424,0,4.922l16.049,27.818
							c0.856,1.498,2.568,2.567,4.28,2.567h19.9l19.045-32.954L26.678,53.274z"/>
					</defs>
					<clipPath id="SVGID_17_">
						<use xlink:href="#SVGID_16_"  overflow="visible"/>
					</clipPath>
					<g clip-path="url(#SVGID_17_)">
						<path fill="#EEEEEE" d="M49.361,13.901l11.341,19.686L49.361,53.274H26.678L15.337,33.587l11.341-19.686H49.361"/>
					</g>
				</g>
				<g>
					<defs>
						<path id="SVGID_18_" d="M74.397,31.02l-9.843-17.333L58.348,2.987c-0.856-1.284-2.354-2.354-4.28-2.354H21.971
							c-1.712,0-3.424,0.855-4.28,2.567L7.848,20.534L1.642,31.233c-0.856,1.498-0.856,3.424,0,4.922l16.049,27.818
							c0.856,1.498,2.568,2.567,4.28,2.567h32.098c1.712,0,3.424-0.855,4.28-2.567l16.049-28.032
							C75.253,34.443,75.253,32.731,74.397,31.02z M37.806,43.431c-5.35,0-9.843-4.494-9.843-9.844c0-5.349,4.494-9.843,9.843-9.843
							s9.843,4.494,9.843,9.843C47.649,38.937,43.369,43.431,37.806,43.431z"/>
					</defs>
					<clipPath id="SVGID_19_">
						<use xlink:href="#SVGID_18_"  overflow="visible"/>
					</clipPath>
					<g clip-path="url(#SVGID_19_)">
						<path fill="#EEEEEE" d="M49.361,13.901l11.341,19.686L49.361,53.274H26.678L15.337,33.587l11.341-19.686H49.361"/>
						<polygon fill="#FFFFFF" fill-opacity="0.4" points="49.361,14.329 60.488,33.587 60.916,33.587 49.361,13.901 26.678,13.901 
							15.337,33.587 15.551,33.587 26.678,14.329 						"/>
						<polygon fill="#262626" fill-opacity="0.05" points="60.488,33.587 49.361,52.847 26.678,52.847 15.551,33.587 15.337,33.587 
							26.678,53.274 49.361,53.274 60.916,33.587 						"/>
						<polygon fill="#BE3A26" fill-opacity="0.05" points="60.916,33.587 49.361,53.274 26.678,53.274 15.337,33.587 15.337,34.015 
							26.678,53.702 49.361,53.702 60.916,34.015 						"/>
						<path fill="#262626" fill-opacity="0.1" d="M37.806,23.316c-5.35,0-9.843,4.494-9.843,9.843h19.687
							C47.863,27.81,43.369,23.316,37.806,23.316z M27.962,34.015c0,5.351,4.494,9.844,9.843,9.844s9.843-4.493,9.843-9.844H27.962z
							"/>
					</g>
				</g>
				<g>
					<defs>
						<path id="SVGID_20_" d="M74.397,31.02l-9.843-17.333L58.348,2.987c-0.856-1.284-2.354-2.354-4.28-2.354H21.971
							c-1.712,0-3.424,0.855-4.28,2.567L7.848,20.534L1.642,31.233c-0.856,1.498-0.856,3.424,0,4.922l16.049,27.818
							c0.856,1.498,2.568,2.567,4.28,2.567h32.098c1.712,0,3.424-0.855,4.28-2.567l16.049-28.032
							C75.253,34.443,75.253,32.731,74.397,31.02z M37.806,43.431c-5.35,0-9.843-4.494-9.843-9.844c0-5.349,4.494-9.843,9.843-9.843
							s9.843,4.494,9.843,9.843C47.649,38.937,43.369,43.431,37.806,43.431z"/>
					</defs>
					<clipPath id="SVGID_21_">
						<use xlink:href="#SVGID_20_"  overflow="visible"/>
					</clipPath>
					
						<linearGradient id="SVGID_22_" gradientUnits="userSpaceOnUse" x1="14.1372" y1="923.2139" x2="14.1372" y2="917.0938" gradientTransform="matrix(2.1399 0 0 -2.1399 7.7699 2028.8606)">
						<stop  offset="0" style="stop-color:#3E2723;stop-opacity:0.15"/>
						<stop  offset="0.0355" style="stop-color:#462823;stop-opacity:0.1447"/>
						<stop  offset="0.2522" style="stop-color:#712E24;stop-opacity:0.1122"/>
						<stop  offset="0.4625" style="stop-color:#923325;stop-opacity:0.0806"/>
						<stop  offset="0.6619" style="stop-color:#AA3726;stop-opacity:0.0507"/>
						<stop  offset="0.8459" style="stop-color:#B93926;stop-opacity:0.0231"/>
						<stop  offset="1" style="stop-color:#BE3A26;stop-opacity:0"/>
					</linearGradient>
					<polygon clip-path="url(#SVGID_21_)" fill="url(#SVGID_22_)" points="26.678,53.274 39.945,66.541 41.871,66.541 
						49.361,53.274 					"/>
				</g>
				<g>
					<defs>
						<path id="SVGID_23_" d="M74.397,31.02l-9.843-17.333L58.348,2.987c-0.856-1.284-2.354-2.354-4.28-2.354H21.971
							c-1.712,0-3.424,0.855-4.28,2.567L7.848,20.534L1.642,31.233c-0.856,1.498-0.856,3.424,0,4.922l16.049,27.818
							c0.856,1.498,2.568,2.567,4.28,2.567h32.098c1.712,0,3.424-0.855,4.28-2.567l16.049-28.032
							C75.253,34.443,75.253,32.731,74.397,31.02z M37.806,43.431c-5.35,0-9.843-4.494-9.843-9.844c0-5.349,4.494-9.843,9.843-9.843
							s9.843,4.494,9.843,9.843C47.649,38.937,43.369,43.431,37.806,43.431z"/>
					</defs>
					<clipPath id="SVGID_24_">
						<use xlink:href="#SVGID_23_"  overflow="visible"/>
					</clipPath>
					<g clip-path="url(#SVGID_24_)">
						<path fill="#FFFFFF" fill-opacity="0.2" d="M7.848,20.962l9.843-17.333c0.856-1.498,2.568-2.568,4.28-2.568h32.098
							c1.712,0,3.424,0.856,4.28,2.568l6.206,10.699l9.843,17.333c0.428,0.642,0.642,1.498,0.642,2.353
							c0-0.855-0.214-1.925-0.642-2.567l-9.843-17.333L58.348,3.416c-0.856-1.712-2.354-2.782-4.28-2.782H21.971
							c-1.712,0-3.424,0.855-4.28,2.567L7.848,20.534L1.642,31.233C1.214,32.089,1,32.945,1,33.802c0-0.856,0.214-1.498,0.642-2.354
							L7.848,20.962z M21.971,66.113c-1.712,0-3.424-0.855-4.28-2.568L7.848,46.212L1.642,35.513C1.214,34.871,1,34.015,1,33.159
							c0,0.855,0.214,1.926,0.642,2.568l6.206,10.699l9.843,17.547c0.856,1.498,2.568,2.567,4.28,2.567h19.9l0.214-0.428H21.971z
							 M75.039,33.374c0,0.855-0.214,1.497-0.642,2.354L64.554,53.06l-6.206,10.7c-0.856,1.498-2.568,2.567-4.28,2.567H42.085
							l-0.214,0.428h12.197c1.712,0,3.424-0.855,4.28-2.567l6.206-10.699l9.843-17.333C74.825,35.3,75.039,34.229,75.039,33.374z"/>
					</g>
				</g>
				
					<radialGradient id="SVGID_25_" cx="-340543.3125" cy="-685004.625" r="2536.3" gradientTransform="matrix(0.0138 0 0 -0.0138 4743.5303 -9431.5713)" gradientUnits="userSpaceOnUse">
					<stop  offset="0" style="stop-color:#FFFFFF;stop-opacity:0.1"/>
					<stop  offset="1" style="stop-color:#FFFFFF;stop-opacity:0"/>
				</radialGradient>
				<path fill="url(#SVGID_25_)" d="M74.397,31.02l-9.843-17.333L58.348,2.987c-0.856-1.284-2.354-2.354-4.28-2.354H21.971
					c-1.712,0-3.424,0.855-4.28,2.567L7.848,20.534L1.642,31.233c-0.856,1.498-0.856,3.424,0,4.922l16.049,27.818
					c0.856,1.498,2.568,2.567,4.28,2.567h32.098c1.712,0,3.424-0.855,4.28-2.567l16.049-28.032
					C75.253,34.443,75.253,32.731,74.397,31.02z M37.806,43.431c-5.35,0-9.843-4.494-9.843-9.844c0-5.349,4.494-9.843,9.843-9.843
					s9.843,4.494,9.843,9.843C47.649,38.937,43.369,43.431,37.806,43.431z"/>
				<rect x="1" y="-6" fill="none" width="74.039" height="78.961"/>
			</g>
		</g>
	</g>
</g>
<g>
	<path fill="#767676" d="M116.148,53.231h-6.398V36.829H93.221v16.402h-6.424V16.263h6.424v15.386h16.529V16.263h6.398V53.231z"/>
	<path fill="#767676" d="M123.156,18.599c0-0.955,0.3-1.748,0.901-2.379c0.601-0.631,1.46-0.947,2.577-0.947s1.98,0.315,2.59,0.947
		s0.914,1.424,0.914,2.379c0,0.938-0.305,1.719-0.914,2.341s-1.473,0.934-2.59,0.934s-1.977-0.311-2.577-0.934
		C123.457,20.318,123.156,19.538,123.156,18.599z M129.707,53.231h-6.17V25.759h6.17V53.231z"/>
	<path fill="#767676" d="M142.986,53.231h-6.17v-39h6.17V53.231z"/>
	<path fill="#767676" d="M156.266,53.231h-6.17v-39h6.17V53.231z"/>
	<path fill="#767676" d="M197.855,44.142c0-2.048-0.72-3.669-2.158-4.862c-1.439-1.193-4.071-2.327-7.896-3.402
		c-3.826-1.075-6.619-2.247-8.379-3.517c-2.505-1.794-3.758-4.147-3.758-7.059c0-2.827,1.164-5.125,3.491-6.893
		c2.327-1.769,5.302-2.653,8.925-2.653c2.454,0,4.65,0.474,6.589,1.422c1.938,0.948,3.44,2.268,4.507,3.96
		c1.066,1.693,1.6,3.58,1.6,5.662h-3.148c0-2.529-0.863-4.563-2.59-6.099s-4.046-2.305-6.957-2.305
		c-2.827,0-5.078,0.631-6.754,1.895s-2.514,2.912-2.514,4.946c0,1.882,0.753,3.417,2.26,4.604c1.506,1.187,3.918,2.234,7.236,3.141
		c3.317,0.907,5.831,1.847,7.541,2.82c1.709,0.974,2.996,2.138,3.859,3.491c0.863,1.354,1.295,2.954,1.295,4.799
		c0,2.912-1.164,5.247-3.491,7.008c-2.328,1.761-5.396,2.641-9.204,2.641c-2.607,0-4.998-0.466-7.173-1.396
		c-2.175-0.931-3.826-2.234-4.951-3.91c-1.126-1.676-1.688-3.597-1.688-5.764h3.123c0,2.607,0.973,4.664,2.92,6.17
		c1.946,1.507,4.536,2.26,7.77,2.26c2.877,0,5.188-0.635,6.932-1.904C196.983,47.925,197.855,46.241,197.855,44.142z"/>
	<path fill="#767676" d="M224.693,49.753c-1.828,2.657-4.748,3.986-8.76,3.986c-2.929,0-5.154-0.851-6.678-2.552
		s-2.302-4.219-2.336-7.554V25.759h3.021v17.494c0,5.23,2.116,7.846,6.348,7.846c4.401,0,7.186-1.819,8.354-5.459V25.759h3.047
		v27.473h-2.945L224.693,49.753z"/>
	<path fill="#767676" d="M248.281,28.349c-0.644-0.118-1.329-0.178-2.057-0.178c-1.896,0-3.5,0.529-4.812,1.587
		c-1.312,1.058-2.247,2.594-2.806,4.608v18.865h-3.021V25.759h2.971l0.051,4.367c1.608-3.25,4.189-4.875,7.744-4.875
		c0.846,0,1.515,0.11,2.006,0.33L248.281,28.349z"/>
	<path fill="#767676" d="M262.094,49.042l8.354-23.283h3.123l-10.258,27.473h-2.463l-10.309-27.473h3.123L262.094,49.042z"/>
	<path fill="#767676" d="M290.506,31.903l10.41-15.64h3.732l-12.238,18.23l12.62,18.738h-3.758l-10.766-16.148l-10.816,16.148
		h-3.707l12.645-18.738l-12.264-18.23h3.732L290.506,31.903z"/>
</g>
<polygon id="_x3C_Slice_x3E_" fill="none" points="0.5,67.5 0.5,-3.5 306.5,0 306.5,71 "/>
</svg>
